<?xml version="1.0" encoding="utf-8"?>
<!-- Generator: Adobe Illustrator 22.0.1, SVG Export Plug-In . SVG Version: 6.00 Build 0)  -->
<svg version="1.1" x="0px" fill="#FFF"
	 y="0px" viewBox="0 0 43.3 8.7"  xmlns="http://www.w3.org/2000/svg" xmlns:xlink="http://www.w3.org/1999/xlink" style="enable-background:new 0 0 43.3 8.7;" xml:space="preserve">
	<g>
		<path d="M2.8,5.2H1.9L1.5,8.5H0L1,0h2.5c1.5,0,2.5,0.9,2.5,2.3C6.1,4.3,4.3,5.2,2.8,5.2z M3.4,1.4h-1L2.1,3.9H3
			c0.7,0,1.5-0.5,1.5-1.5C4.5,1.7,4.1,1.4,3.4,1.4z"/>
		<path d="M8.2,6.7C8.1,7.1,8.3,7.4,8.6,7.4c0.5,0,1.3-0.6,1.8-4.2h1.4l-0.5,4.1c0,0.3,0.1,0.4,0.3,0.4
			c0.1,0,0.4-0.1,0.5-0.2L12,8.3c-0.2,0.2-0.6,0.4-1.1,0.4c-0.7,0-1.1-0.5-1-1.4l0-0.1c-0.5,1-1.2,1.5-2,1.5c-0.9,0-1.4-0.8-1.2-2
			l0.4-2.3C7.2,4.1,7.1,4,6.9,4C6.7,4,6.5,4.1,6.3,4.2l0.1-0.7C6.6,3.3,7,3,7.6,3c0.6,0,1.1,0.5,0.9,1.4L8.2,6.7z"/>
		<path d="M16.8,5.2c0.1-0.5,0-0.8-0.4-0.8c-0.5,0-1.3,0.6-1.8,4.1h-1.4l0.5-4.1c0-0.3-0.1-0.4-0.3-0.4
			c-0.2,0-0.4,0.1-0.5,0.2l0.1-0.7C13.1,3.3,13.5,3,14,3c0.7,0,1.1,0.5,1,1.4l0,0.2C15.4,3.6,16.2,3,17,3c0.8,0,1.4,0.7,1.2,2
			l-0.4,2.3c0,0.3,0.1,0.4,0.3,0.4c0.1,0,0.4-0.1,0.5-0.2l-0.1,0.7c-0.2,0.2-0.7,0.4-1.2,0.4c-0.7,0-1.1-0.5-0.9-1.4L16.8,5.2z"/>
		<path d="M20.7,6.2c0,0.8,0.3,1.2,0.7,1.2c0.4,0,0.9-0.3,1.2-0.6l0.7,1c-0.5,0.5-1.2,0.9-2,0.9c-1,0-2-0.8-2-2.2
			c0-2.1,1.4-3.4,2.9-3.4c0.6,0,1.1,0.2,1.4,0.3l-0.6,1.2c-0.3-0.1-0.6-0.2-1-0.2C21.2,4.4,20.7,5.2,20.7,6.2z"/>
		<path d="M26.2,4.1l-0.4,2.8c-0.1,0.5,0.1,0.7,0.4,0.7c0.3,0,0.5-0.2,0.8-0.4l0.2,0.8c-0.2,0.4-0.8,0.7-1.5,0.7
			c-0.9,0-1.4-0.6-1.2-1.8l0.4-2.7h-0.9l0.4-0.9h0.6l0.6-1.5h0.9l-0.1,1.5h1.4l-0.4,0.9H26.2z"/>
		<path d="M29.8,6.7c-0.1,0.4,0.1,0.7,0.4,0.7c0.5,0,1.3-0.6,1.8-4.2h1.4l-0.5,4.1c0,0.3,0.1,0.4,0.3,0.4
			c0.1,0,0.4-0.1,0.5-0.2l-0.1,0.7c-0.2,0.2-0.6,0.4-1.1,0.4c-0.7,0-1.1-0.5-1-1.4l0-0.1c-0.5,1-1.2,1.5-2,1.5c-0.9,0-1.4-0.8-1.2-2
			l0.4-2.3c0-0.3-0.1-0.4-0.3-0.4c-0.2,0-0.4,0.1-0.5,0.2L28,3.5C28.2,3.3,28.7,3,29.2,3c0.6,0,1.1,0.5,0.9,1.4L29.8,6.7z"/>
		<path d="M39.7,4.6c0.5-1,1.2-1.5,1.9-1.5c0.8,0,1.5,0.7,1.3,2l-0.4,2.3c0,0.3,0.1,0.4,0.3,0.4c0.1,0,0.4-0.1,0.5-0.2
			l-0.1,0.7c-0.2,0.2-0.7,0.4-1.2,0.4c-0.7,0-1.1-0.5-0.9-1.4l0.3-2.1c0.1-0.5,0-0.8-0.4-0.8c-0.5,0-1.4,0.6-1.7,4.1h-1.3l0.4-3.3
			c0-0.5-0.1-0.8-0.5-0.8c-0.5,0-1.3,0.6-1.7,4.1h-1.4l0.5-4.1C35.3,4.1,35.2,4,35,4c-0.2,0-0.4,0.1-0.5,0.2l0.1-0.7
			C34.7,3.3,35.1,3,35.6,3c0.7,0,1.1,0.5,1,1.4l0,0.2C37,3.6,37.7,3,38.4,3C39.1,3,39.7,3.6,39.7,4.6z"/>
	</g>
	</svg>
